<svg version="1.1" id="Layer_1" xmlns="http://www.w3.org/2000/svg" xmlns:xlink="http://www.w3.org/1999/xlink" x="0px" y="0px"
	 width="100%" viewBox="0 0 512 512" enable-background="new 0 0 512 512" xml:space="preserve">
<path fill="#352169" opacity="1.000000" stroke="none" 
	d="
M253.000000,513.000000 
	C168.687119,513.000000 84.874237,513.000000 1.030678,513.000000 
	C1.030678,342.395416 1.030678,171.790848 1.030678,1.093132 
	C171.562897,1.093132 342.125885,1.093132 512.844421,1.093132 
	C512.844421,171.666550 512.844421,342.333252 512.844421,513.000000 
	C426.457489,513.000000 339.978729,513.000000 253.000000,513.000000 
M159.877716,222.519485 
	C159.887436,221.519653 159.896942,220.519806 159.906921,219.519974 
	C160.069931,203.183411 163.363083,199.883865 179.510086,199.880096 
	C217.839706,199.871155 256.169617,199.779022 294.498688,199.917923 
	C303.066528,199.948959 309.909882,197.105453 315.742310,190.805878 
	C327.738312,177.849106 339.971069,165.110260 352.202545,152.374039 
	C354.434875,150.049591 356.675446,147.376144 354.588501,144.626572 
	C353.200836,142.798340 349.853119,141.584946 347.380951,141.582001 
	C300.054260,141.525726 252.727356,141.724243 205.400391,141.784286 
	C193.732834,141.799088 184.168274,146.177994 176.008713,154.428589 
	C150.817184,179.901169 125.488770,205.238373 100.217323,230.631927 
	C92.801559,238.083557 92.736656,244.314194 100.036713,251.725220 
	C116.406616,268.343994 132.737961,285.001892 149.267120,301.460968 
	C150.858673,303.045776 154.267731,304.595795 155.852295,303.906647 
	C157.523804,303.179749 158.855469,299.765137 158.900223,297.496460 
	C159.386612,272.838684 159.590714,248.175339 159.877716,222.519485 
M335.436462,315.112396 
	C296.937561,315.121277 258.438568,315.172028 219.939789,315.104004 
	C212.157959,315.090271 205.721954,317.611603 200.350616,323.339905 
	C188.043503,336.464874 175.585617,349.448608 163.168228,362.469910 
	C161.062012,364.678528 158.288544,367.180817 160.478104,370.131042 
	C161.856079,371.987701 165.146103,373.356689 167.580612,373.360077 
	C215.410660,373.427063 263.241058,373.275940 311.071289,373.131805 
	C321.783386,373.099518 330.782928,368.987823 338.306213,361.425964 
	C364.163971,335.435638 390.050293,309.473755 415.911713,283.487091 
	C421.962677,277.406830 422.033844,270.241913 416.083130,264.105469 
	C411.211182,259.081451 406.249664,254.144363 401.331970,249.164703 
	C389.505524,237.189163 377.749695,225.142105 365.770996,213.320908 
	C364.256256,211.826050 360.847595,210.242325 359.611115,210.952881 
	C357.839417,211.971008 357.229889,215.049652 356.198090,217.282715 
	C356.007385,217.695450 356.171051,218.270264 356.164948,218.770203 
	C355.830658,246.100296 355.531158,273.430908 355.141174,300.760223 
	C355.007904,310.098541 350.242218,314.792816 340.910797,315.089691 
	C339.412201,315.137360 337.911133,315.106781 335.436462,315.112396 
z"/>
<path fill="#F5F4FB" opacity="1.000000" stroke="none" 
	d="
M159.874756,223.016510 
	C159.590714,248.175339 159.386612,272.838684 158.900223,297.496460 
	C158.855469,299.765137 157.523804,303.179749 155.852295,303.906647 
	C154.267731,304.595795 150.858673,303.045776 149.267120,301.460968 
	C132.737961,285.001892 116.406616,268.343994 100.036713,251.725220 
	C92.736656,244.314194 92.801559,238.083557 100.217323,230.631927 
	C125.488770,205.238373 150.817184,179.901169 176.008713,154.428589 
	C184.168274,146.177994 193.732834,141.799088 205.400391,141.784286 
	C252.727356,141.724243 300.054260,141.525726 347.380951,141.582001 
	C349.853119,141.584946 353.200836,142.798340 354.588501,144.626572 
	C356.675446,147.376144 354.434875,150.049591 352.202545,152.374039 
	C339.971069,165.110260 327.738312,177.849106 315.742310,190.805878 
	C309.909882,197.105453 303.066528,199.948959 294.498688,199.917923 
	C256.169617,199.779022 217.839706,199.871155 179.510086,199.880096 
	C163.363083,199.883865 160.069931,203.183411 159.906921,219.519974 
	C159.896942,220.519806 159.887436,221.519653 159.874756,223.016510 
z"/>
<path fill="#F5F4FB" opacity="1.000000" stroke="none" 
	d="
M335.923828,315.112366 
	C337.911133,315.106781 339.412201,315.137360 340.910797,315.089691 
	C350.242218,314.792816 355.007904,310.098541 355.141174,300.760223 
	C355.531158,273.430908 355.830658,246.100296 356.164948,218.770203 
	C356.171051,218.270264 356.007385,217.695450 356.198090,217.282715 
	C357.229889,215.049652 357.839417,211.971008 359.611115,210.952881 
	C360.847595,210.242325 364.256256,211.826050 365.770996,213.320908 
	C377.749695,225.142105 389.505524,237.189163 401.331970,249.164703 
	C406.249664,254.144363 411.211182,259.081451 416.083130,264.105469 
	C422.033844,270.241913 421.962677,277.406830 415.911713,283.487091 
	C390.050293,309.473755 364.163971,335.435638 338.306213,361.425964 
	C330.782928,368.987823 321.783386,373.099518 311.071289,373.131805 
	C263.241058,373.275940 215.410660,373.427063 167.580612,373.360077 
	C165.146103,373.356689 161.856079,371.987701 160.478104,370.131042 
	C158.288544,367.180817 161.062012,364.678528 163.168228,362.469910 
	C175.585617,349.448608 188.043503,336.464874 200.350616,323.339905 
	C205.721954,317.611603 212.157959,315.090271 219.939789,315.104004 
	C258.438568,315.172028 296.937561,315.121277 335.923828,315.112366 
z"/>
</svg>